<svg width="18" height="18" viewBox="0 0 18 18" fill="none" xmlns="http://www.w3.org/2000/svg">
<path d="M8.375 17.5415V16.104C6.63889 15.9234 5.17694 15.2393 3.98917 14.0515C2.80194 12.8643 2.11806 11.4026 1.9375 9.6665H0.5V8.4165H1.9375C2.11806 6.68039 2.80194 5.21845 3.98917 4.03067C5.17694 2.84345 6.63889 2.15956 8.375 1.979V0.541504H9.625V1.979C11.3611 2.15956 12.8231 2.84345 14.0108 4.03067C15.1981 5.21845 15.8819 6.68039 16.0625 8.4165H17.5V9.6665H16.0625C15.8819 11.4026 15.1981 12.8643 14.0108 14.0515C12.8231 15.2393 11.3611 15.9234 9.625 16.104V17.5415H8.375ZM9 14.8748C10.6111 14.8748 11.9861 14.3054 13.125 13.1665C14.2639 12.0276 14.8333 10.6526 14.8333 9.0415C14.8333 7.43039 14.2639 6.05539 13.125 4.9165C11.9861 3.77762 10.6111 3.20817 9 3.20817C7.38889 3.20817 6.01389 3.77762 4.875 4.9165C3.73611 6.05539 3.16667 7.43039 3.16667 9.0415C3.16667 10.6526 3.73611 12.0276 4.875 13.1665C6.01389 14.3054 7.38889 14.8748 9 14.8748Z" fill="#1C1B1F"/>
</svg>
