<svg width="16" height="16" viewBox="0 0 16 16"  fill="#181512" xmlns="http://www.w3.org/2000/svg">
<path d="M5.52208 8.06698C5.52208 6.65961 6.66335 5.51841 8.07157 5.51841C9.47979 5.51841 10.6217 6.65961 10.6217 8.06698C10.6217 9.47436 9.47979 10.6156 8.07157 10.6156C6.66335 10.6156 5.52208 9.47436 5.52208 8.06698ZM4.14354 8.06698C4.14354 10.2351 5.90212 11.9927 8.07157 11.9927C10.241 11.9927 11.9996 10.2351 11.9996 8.06698C11.9996 5.89883 10.241 4.14131 8.07157 4.14131C5.90212 4.14131 4.14354 5.89883 4.14354 8.06698ZM11.2371 3.98566C11.2371 4.1671 11.2908 4.3445 11.3916 4.49541C11.4924 4.64632 11.6358 4.76396 11.8035 4.83346C11.9712 4.90297 12.1557 4.92121 12.3338 4.88588C12.5119 4.85055 12.6755 4.76324 12.8039 4.63499C12.9324 4.50674 13.0199 4.34331 13.0554 4.16536C13.0908 3.98742 13.0727 3.80295 13.0033 3.63528C12.9339 3.46762 12.8163 3.32429 12.6654 3.22343C12.5145 3.12256 12.337 3.06868 12.1555 3.06861H12.1551C11.9117 3.06873 11.6784 3.16537 11.5063 3.33731C11.3341 3.50926 11.2373 3.74244 11.2371 3.98566ZM4.98109 14.2899C4.23528 14.256 3.82991 14.1318 3.56051 14.0269C3.20337 13.888 2.94854 13.7225 2.68062 13.4551C2.41269 13.1877 2.24685 12.9332 2.10842 12.5763C2.0034 12.3072 1.87917 11.902 1.84527 11.1566C1.80818 10.3507 1.80078 10.1087 1.80078 8.06705C1.80078 6.02543 1.8088 5.78403 1.84527 4.9775C1.87923 4.23214 2.00438 3.82768 2.10842 3.55778C2.24746 3.20084 2.41306 2.94617 2.68062 2.67841C2.94817 2.41064 3.20275 2.2449 3.56051 2.10655C3.82978 2.0016 4.23528 1.87744 4.98109 1.84356C5.78743 1.8065 6.02965 1.7991 8.07157 1.7991C10.1135 1.7991 10.356 1.80711 11.163 1.84356C11.9088 1.8775 12.3135 2.00258 12.5835 2.10655C12.9407 2.2449 13.1955 2.41101 13.4634 2.67841C13.7314 2.9458 13.8966 3.20084 14.0356 3.55778C14.1407 3.82688 14.2649 4.23214 14.2988 4.9775C14.3359 5.78403 14.3433 6.02543 14.3433 8.06705C14.3433 10.1087 14.3359 10.3501 14.2988 11.1566C14.2648 11.902 14.14 12.3071 14.0356 12.5763C13.8966 12.9332 13.731 13.1879 13.4634 13.4551C13.1959 13.7222 12.9407 13.888 12.5835 14.0269C12.3143 14.1319 11.9088 14.256 11.163 14.2899C10.3566 14.327 10.1144 14.3344 8.07157 14.3344C6.02873 14.3344 5.78719 14.327 4.98109 14.2899ZM4.91775 0.468174C4.1034 0.505237 3.54693 0.634287 3.06096 0.823274C2.55767 1.01844 2.13161 1.28027 1.70586 1.70509C1.28011 2.12991 1.0188 2.55639 0.823515 3.05938C0.634414 3.54536 0.505287 4.10119 0.468202 4.91506C0.430504 5.73021 0.421875 5.99082 0.421875 8.06698C0.421875 10.1432 0.430504 10.4038 0.468202 11.2189C0.505287 12.0328 0.634414 12.5886 0.823515 13.0746C1.0188 13.5773 1.28017 14.0042 1.70586 14.4289C2.13155 14.8535 2.55767 15.115 3.06096 15.3107C3.54785 15.4997 4.1034 15.6287 4.91775 15.6658C5.73382 15.7029 5.99416 15.7121 8.07157 15.7121C10.149 15.7121 10.4097 15.7035 11.2254 15.6658C12.0398 15.6287 12.5959 15.4997 13.0822 15.3107C13.5852 15.115 14.0115 14.8537 14.4373 14.4289C14.863 14.0041 15.1238 13.5773 15.3196 13.0746C15.5087 12.5886 15.6385 12.0328 15.6749 11.2189C15.712 10.4031 15.7207 10.1432 15.7207 8.06698C15.7207 5.99082 15.712 5.73021 15.6749 4.91506C15.6379 4.10113 15.5087 3.54505 15.3196 3.05938C15.1238 2.5567 14.8624 2.13059 14.4373 1.70509C14.0122 1.2796 13.5852 1.01844 13.0828 0.823274C12.5959 0.634287 12.0397 0.504626 11.226 0.468174C10.4104 0.43111 10.1496 0.421875 8.07218 0.421875C5.99477 0.421875 5.73382 0.430499 4.91775 0.468174Z"  />
</svg>
