<svg width="128" height="40" viewBox="0 0 128 40" fill="none" xmlns="http://www.w3.org/2000/svg">
<path d="M107.256 34.3759V5.5H112.658V29.8382H127.867V34.3759H107.256Z" fill="#181512"/>
<path d="M0 34.3759V5.5H12.7158C15.874 5.5 18.6444 6.10502 21.0269 7.31506C23.4093 8.52509 25.2655 10.2026 26.5952 12.3477C27.925 14.4928 28.5899 17.0228 28.5899 19.9379C28.5899 22.8255 27.925 25.3556 26.5952 27.5282C25.2655 29.6732 23.4093 31.3508 21.0269 32.5608C18.6444 33.7708 15.874 34.3759 12.7158 34.3759H0ZM5.40216 29.8382H12.4665C14.6551 29.8382 16.5389 29.4257 18.118 28.6007C19.7248 27.7757 20.9576 26.6206 21.8164 25.1356C22.7029 23.6505 23.1462 21.918 23.1462 19.9379C23.1462 17.9304 22.7029 16.1978 21.8164 14.7403C20.9576 13.2552 19.7248 12.1002 18.118 11.2752C16.5389 10.4501 14.6551 10.0376 12.4665 10.0376H5.40216V29.8382Z" fill="#DD493B"/>
<path d="M34.3316 34.3759V5.5H39.7338V34.3759H34.3316Z" fill="#DD493B"/>
<path d="M56.0007 34.3759L43.2848 5.5H49.1441L58.8148 27.7594L68.5918 5.5H73.994L61.3197 34.3759H56.0007Z" fill="#181512"/>
<path fill-rule="evenodd" clip-rule="evenodd" d="M72.0162 34.3759L85.1061 5.5H90.4251L103.557 34.3759H97.905L95.0138 27.6932H80.4651L77.5846 34.3759H72.0162ZM82.2788 23.4855L87.726 10.8483L93.1934 23.4855H82.2788Z" fill="#181512"/>
</svg>
