<svg width="102" height="24" viewBox="0 0 102 24" fill="none" xmlns="http://www.w3.org/2000/svg">
<path d="M85.4469 23.2758V0.399994H89.7506V19.6811H101.867V23.2758H85.4469Z" fill="#181512"/>
<path d="M0 23.2758V0.399994H10.1303C12.6463 0.399994 14.8533 0.879298 16.7513 1.83791C18.6494 2.79651 20.1281 4.12549 21.1875 5.82484C22.2468 7.52419 22.7765 9.52855 22.7765 11.8379C22.7765 14.1255 22.2468 16.1299 21.1875 17.851C20.1281 19.5504 18.6494 20.8793 16.7513 21.8379C14.8533 22.7965 12.6463 23.2758 10.1303 23.2758H0ZM4.3037 19.6811H9.93163C11.6752 19.6811 13.176 19.3543 14.434 18.7007C15.714 18.0471 16.6962 17.132 17.3803 15.9556C18.0866 14.7791 18.4397 13.4065 18.4397 11.8379C18.4397 10.2475 18.0866 8.87495 17.3803 7.72027C16.6962 6.54379 15.714 5.62876 14.434 4.97516C13.176 4.32157 11.6752 3.99477 9.93163 3.99477H4.3037V19.6811Z" fill="#DD493B"/>
<path d="M27.3508 23.2758V0.399994H31.6545V23.2758H27.3508Z" fill="#DD493B"/>
<path d="M44.6137 23.2758L34.4834 0.399994H39.1513L46.8556 18.0342L54.6446 0.399994H58.9483L48.8512 23.2758H44.6137Z" fill="#181512"/>
<path fill-rule="evenodd" clip-rule="evenodd" d="M57.3727 23.2758L67.8009 0.399994H72.0384L82.4997 23.2758H77.9974L75.6941 17.9817H64.1037L61.8089 23.2758H57.3727ZM65.5486 14.6484L69.8882 4.63695L74.2439 14.6484H65.5486Z" fill="#181512"/>
</svg>
