<svg width="128" height="28" viewBox="0 0 128 28" fill="none" xmlns="http://www.w3.org/2000/svg">
<path d="M107.879 27.3171V0H114.233V22.1659H128V27.3171H107.879Z" fill="#181512"/>
<path d="M0 27.3171V0H12.4724C15.4533 0 18.0811 0.572358 20.3559 1.71707C22.6308 2.83577 24.4088 4.40976 25.6901 6.43902C26.9713 8.46829 27.6119 10.8748 27.6119 13.6585C27.6119 16.4163 26.9713 18.8228 25.6901 20.878C24.4088 22.9073 22.6308 24.4943 20.3559 25.639C18.0811 26.7577 15.4533 27.3171 12.4724 27.3171H0ZM6.35388 22.1268H12.1587C13.989 22.1268 15.5709 21.7886 16.9044 21.1122C18.2641 20.4098 19.31 19.4211 20.0422 18.1463C20.8004 16.8715 21.1796 15.3756 21.1796 13.6585C21.1796 11.9154 20.8004 10.4195 20.0422 9.17073C19.31 7.89594 18.2641 6.92033 16.9044 6.2439C15.5709 5.54146 13.989 5.19024 12.1587 5.19024H6.35388V22.1268Z" fill="#DD493B"/>
<path d="M33.3883 27.3171V0H39.7422V27.3171H33.3883Z" fill="#DD493B"/>
<path fill-rule="evenodd" clip-rule="evenodd" d="M72.2729 27.3171L84.51 0H90.7855L103.062 27.3171H96.3941L93.9571 21.4634H81.2303L78.7837 27.3171H72.2729ZM91.9587 16.6634H83.2365L87.6061 6.20876L91.9587 16.6634Z" fill="#181512"/>
<path d="M56.3487 27.3171L44.5038 0H51.3676L59.7174 19.5107L68.1936 0H74.5083L62.6242 27.3171H56.3487Z" fill="#181512"/>
</svg>
