<svg width="121" height="66" viewBox="0 0 121 66" fill="none" xmlns="http://www.w3.org/2000/svg">
<g filter="url(#filter0_d_407_3413)">
<mask id="path-1-inside-1_407_3413" fill="white">
<path fill-rule="evenodd" clip-rule="evenodd" d="M28 9C17.5066 9 9 17.5066 9 28C9 38.4934 17.5066 47 28 47H53L61 57L69 47H93C103.493 47 112 38.4934 112 28C112 17.5066 103.493 9 93 9H28Z"/>
</mask>
<path fill-rule="evenodd" clip-rule="evenodd" d="M28 9C17.5066 9 9 17.5066 9 28C9 38.4934 17.5066 47 28 47H53L61 57L69 47H93C103.493 47 112 38.4934 112 28C112 17.5066 103.493 9 93 9H28Z" fill="white"/>
<path d="M53 47L54.1713 46.063L53.7209 45.5H53V47ZM61 57L59.8287 57.937L61 59.4012L62.1713 57.937L61 57ZM69 47V45.5H68.2791L67.8287 46.063L69 47ZM10.5 28C10.5 18.335 18.335 10.5 28 10.5V7.5C16.6782 7.5 7.5 16.6782 7.5 28H10.5ZM28 45.5C18.335 45.5 10.5 37.665 10.5 28H7.5C7.5 39.3218 16.6782 48.5 28 48.5V45.5ZM53 45.5H28V48.5H53V45.5ZM51.8287 47.937L59.8287 57.937L62.1713 56.063L54.1713 46.063L51.8287 47.937ZM62.1713 57.937L70.1713 47.937L67.8287 46.063L59.8287 56.063L62.1713 57.937ZM93 45.5H69V48.5H93V45.5ZM110.5 28C110.5 37.665 102.665 45.5 93 45.5V48.5C104.322 48.5 113.5 39.3218 113.5 28H110.5ZM93 10.5C102.665 10.5 110.5 18.335 110.5 28H113.5C113.5 16.6782 104.322 7.5 93 7.5V10.5ZM28 10.5H93V7.5H28V10.5Z" fill="#9D9C9C" mask="url(#path-1-inside-1_407_3413)"/>
</g>
<path d="M84.1813 35V21H87.5491V32.36H94.8462V35H84.1813Z" fill="#181512"/>
<path d="M27 35V21H33.611C35.191 21 36.5838 21.2933 37.7896 21.88C38.9954 22.4533 39.9378 23.26 40.617 24.3C41.2961 25.34 41.6356 26.5733 41.6356 28C41.6356 29.4133 41.2961 30.6467 40.617 31.7C39.9378 32.74 38.9954 33.5533 37.7896 34.14C36.5838 34.7133 35.191 35 33.611 35H27ZM30.3679 32.34H33.4447C34.4148 32.34 35.2533 32.1667 35.9602 31.82C36.6809 31.46 37.2352 30.9533 37.6233 30.3C38.0252 29.6467 38.2262 28.88 38.2262 28C38.2262 27.1067 38.0252 26.34 37.6233 25.7C37.2352 25.0467 36.6809 24.5467 35.9602 24.2C35.2533 23.84 34.4148 23.66 33.4447 23.66H30.3679V32.34Z" fill="#DD493B"/>
<path d="M44.6974 35V21H48.0652V35H44.6974Z" fill="#DD493B"/>
<path fill-rule="evenodd" clip-rule="evenodd" d="M65.3081 35L71.7944 21H75.1206L81.6277 35H78.0935L76.8017 32H70.0559L68.7591 35H65.3081ZM75.7425 29.54H71.1193L73.4354 24.182L75.7425 29.54Z" fill="#181512"/>
<path d="M56.8675 35L50.5892 21H54.2273L58.6531 30.9992L63.1459 21H66.4929L60.1938 35H56.8675Z" fill="#181512"/>
<defs>
<filter id="filter0_d_407_3413" x="0" y="0" width="121" height="66" filterUnits="userSpaceOnUse" color-interpolation-filters="sRGB">
<feFlood flood-opacity="0" result="BackgroundImageFix"/>
<feColorMatrix in="SourceAlpha" type="matrix" values="0 0 0 0 0 0 0 0 0 0 0 0 0 0 0 0 0 0 127 0" result="hardAlpha"/>
<feOffset/>
<feGaussianBlur stdDeviation="4.5"/>
<feComposite in2="hardAlpha" operator="out"/>
<feColorMatrix type="matrix" values="0 0 0 0 0 0 0 0 0 0 0 0 0 0 0 0 0 0 0.25 0"/>
<feBlend mode="normal" in2="BackgroundImageFix" result="effect1_dropShadow_407_3413"/>
<feBlend mode="normal" in="SourceGraphic" in2="effect1_dropShadow_407_3413" result="shape"/>
</filter>
</defs>
</svg>
