<svg width="36" height="34" viewBox="0 0 36 34" fill="none" xmlns="http://www.w3.org/2000/svg">
<path d="M12.75 33.458L9.74999 28.375L3.95799 27.167L4.58299 21.375L0.791992 17L4.58299 12.625L3.95799 6.833L9.74999 5.625L12.75 0.542L18 2.875L23.25 0.542L26.292 5.625L32.042 6.833L31.417 12.625L35.208 17L31.417 21.375L32.042 27.167L26.292 28.375L23.25 33.458L18 31.125L12.75 33.458ZM13.667 30.708L18 28.917L22.417 30.708L25 26.625L29.75 25.5L29.292 20.667L32.5 17L29.292 13.292L29.75 8.458L25 7.375L22.375 3.292L18 5.083L13.583 3.292L11 7.375L6.24999 8.458L6.70799 13.292L3.49999 17L6.70799 20.667L6.24999 25.542L11 26.625L13.667 30.708ZM16.25 22.167L25.083 13.333L23.542 11.875L16.25 19.167L12.458 15.333L10.917 16.875L16.25 22.167Z" fill="#C93527"/>
</svg>
