<svg width="30" height="29" viewBox="0 0 30 29" fill="none" xmlns="http://www.w3.org/2000/svg">
<path d="M27.4154 28.9993L17.082 18.666C16.2487 19.3605 15.2976 19.8949 14.2287 20.2693C13.1587 20.6449 12.0543 20.8327 10.9154 20.8327C8.13759 20.8327 5.78314 19.8671 3.85203 17.936C1.92203 16.006 0.957031 13.6521 0.957031 10.8743C0.957031 8.09657 1.92203 5.74213 3.85203 3.81102C5.78314 1.88102 8.13759 0.916016 10.9154 0.916016C13.6931 0.916016 16.0476 1.88102 17.9787 3.81102C19.9087 5.74213 20.8737 8.09657 20.8737 10.8743C20.8737 12.041 20.6793 13.166 20.2904 14.2493C19.9015 15.3327 19.3737 16.2632 18.707 17.041L29.0404 27.3327L27.4154 28.9993ZM10.9154 18.4993C13.0543 18.4993 14.8598 17.7632 16.332 16.291C17.8043 14.8188 18.5404 13.0132 18.5404 10.8743C18.5404 8.73546 17.8043 6.9299 16.332 5.45768C14.8598 3.98546 13.0543 3.24935 10.9154 3.24935C8.77648 3.24935 6.97092 3.98546 5.4987 5.45768C4.02648 6.9299 3.29036 8.73546 3.29036 10.8743C3.29036 13.0132 4.02648 14.8188 5.4987 16.291C6.97092 17.7632 8.77648 18.4993 10.9154 18.4993ZM9.7487 15.2077V12.041H6.58203V9.70768H9.7487V6.49935H12.082V9.70768H15.2904V12.041H12.082V15.2077H9.7487Z" fill="white"/>
</svg>
